# xmcd CD database file generated by MAGIX_Freedb v0.9beta0
# 
# Track frame offsets:
#      150
#      18550
#      36705
#      48772
#      64537
#      81770
#      98130
#      109275
#      127667
#      148545
#      163450
#      179520
#      195382
#      209437
#      225660
#      245037
# 
# Disc length: 3469 seconds
# 
# Revision: 0 
# Processed by: cddbd v1.5.1PL0 Copyright (c) Steve Scherf et al.
# Submitted via: MAGIX_Freedb v0.9beta0
# 
DISCID=e20d8b10
DTITLE=Lee Towers - 24 karat gold
DYEAR=1900
DGENRE=
TTITLE0=New York, new York
TTITLE1=It's raining in my heart
TTITLE2=Love potion number nine
TTITLE3=Everyday
TTITLE4=We've got tonight
TTITLE5=Happy birthday, baby
TTITLE6=Bless you
TTITLE7=My way
TTITLE8=Once upon the time in the west
TTITLE9=Somewhere
TTITLE10=Highway to freedom
TTITLE11=C'est la vie
TTITLE12=Golden lady
TTITLE13=If you know what I mean
TTITLE14=Lady
TTITLE15=Laura
EXTD=
EXTT0=
EXTT1=
EXTT2=
EXTT3=
EXTT4=
EXTT5=
EXTT6=
EXTT7=
EXTT8=
EXTT9=
EXTT10=
EXTT11=
EXTT12=
EXTT13=
EXTT14=
EXTT15=
PLAYORDER=
